<svg version="1.2" xmlns="http://www.w3.org/2000/svg" viewBox="780 0 750 750" width="750" height="750">
	<title>KE Botanicals Logo openfile</title>
	<defs>
		<clipPath clipPathUnits="userSpaceOnUse" id="cp1">
			<path d="m780 0h750v750h-750z"/>
		</clipPath>
		<clipPath clipPathUnits="userSpaceOnUse" id="cp2">
			<path d="m1194.76 255.12l49.38 3.53-5.78 80.79-49.37-3.53z"/>
		</clipPath>
	</defs>
	<style>
		tspan { white-space:pre } 
		.s0 { fill: #000000 } 
		.t1 { font-size: 51px;line-height: 28px;fill: #11ab61;font-weight: 711;font-family: "CooperHewitt-Bold", "Cooper Hewitt" } 
		.t2 { font-size: 253px;line-height: 28px;fill: #000000;font-weight: bold;font-family: "Monument Extended" } 
		.s3 { fill: #11ab61 } 
	</style>
	<g id="Page 2" clip-path="url(#cp1)">
		<path id="Path 33" class="s0" d="m947.7 332.2v101.8h56.9q0-6.1 0-12.2c0-15.6 1.4-22-11.6-33.1-17.3-14.8-36.2-34.1-45.3-56.5zm56.9-60.4v-15.1h-56.9v43.6c0 23.6 16 25.8 36 10.5 13.1-10 20.9-21.8 20.9-39z"/>
		<path id="Path 34" class="s0" d="m1003.3 380.7q25 19.8 49.9 39.5l4.8 3.8c6.4 5.1 10.1 7.6 13.8 8.8 3.7 1.2 8.5 1.2 16.9 1.2h52.9l-102.4-83.2q-0.6-0.5-1.1-1.1c-2.4-3-2-7.3 1-9.7l102.5-83.3h-52.9c-8.4 0-13.2 0-16.9 1.2-3.7 1.2-7.4 3.7-13.8 8.8l-4.8 3.8q-24.9 19.7-49.9 39.5c-15.3 12.1-41.4 33.1-55.6 8.6 3.3 22.2 30.2 42 55.6 62.1z"/>
		<path id="Path 35" class="s0" d="m1092.6 336.6h72.7v17.5h-72.7z"/>
		<text id="BO TA NI CA LS" style="transform: matrix(1,0,0,1,944.905,485.822)" >
			<tspan x="0" y="0" class="t1">BO TA NI CA LS
</tspan>
		</text>
		<text id="E" style="transform: matrix(1,0,0,1,1181.87,431.28)" >
			<tspan x="0" y="0" class="t2">E
</tspan>
		</text>
		<g id="Mask" clip-path="url(#cp2)">
			<path id="Path 38" fill-rule="evenodd" class="s3" d="m1230.3 314.4c1.2-1.8 3.7-5.2 5.5-8.4 3.6-6.5 4.4-13.2 3.1-20.5-1.1-6.1-3.3-9.4-6.1-14.6-1.1-2-2.2-4.4-2.5-6.7-0.4-2.4 0.1-4.6 0.3-5.8 0.3-1.1 0.3-1.1-0.9-0.3-1.2 0.7-3.7 2.2-5.5 3.7-4 3.3-6.3 7.3-7.6 12.4-1.4 5.3-1 11.7 1.6 16.6 2.1 3.9 6.3 7 8.5 11 1 2 1.7 4.3 2 6.8 0.2 1.3 0.3 2.7 0.3 3.8 0.9-2.4 1.3-5.1 1.5-7.7 0.1-2.6 0-5.3-0.4-7.9-0.6-3.5-1.7-6.7-2.7-9.7-2.1-6.6-2.9-11.5-1.9-19 0.9 10 0.9 11.1 3.5 18.4 1 3.1 2.2 6.4 2.7 10 0.5 2.7 0.6 5.6 0.4 8.3-0.1 2.8-0.6 5.5-1.3 7.8q-0.5 1.2-1 2.4 0.2-0.3 0.5-0.6z"/>
			<path id="Path 39" fill-rule="evenodd" class="s0" d="m1228.1 317.4c-10.1 10.4-23.4 17.6-36.4 16.4-16.1-1.4-28.3-6.6-43.9-9.2-3.7-0.7-8.9-1.5-13.5-2-4.6-0.5-8.6-0.6-10.5-0.6-2-0.1-2-0.1-0.5-0.2 1.5-0.1 4.5-0.3 8.6-0.5 10.4-0.3 21 0.4 31.3 2 9.2 1.5 18.3 4.3 27.7 4.9 13.9 1 26.9-3.2 37.2-10.8z"/>
			<path id="Path 40" fill-rule="evenodd" class="s3" d="m1241.2 299.9c-1.8 9.1-5.4 17.8-10.7 24.5q-0.8 0.9-1.9 2c-2.5 2.5-6.1 5.3-11.7 7.1-5.4 1.8-12.5 2.6-19.3 3.7 6.2-2.4 12.5-4.7 18.4-7.9 12.1-6.8 20.7-17.4 25.2-29.4z"/>
			<path id="Path 41" fill-rule="evenodd" class="s3" d="m1227.4 314.1c-0.4-1.5-1.1-4.7-2.1-7.3-1.9-5.3-5.3-9-10.2-11.9-4-2.4-7-2.8-11.4-3.7-1.6-0.4-3.6-1-5-1.9-1.5-1-2.6-2.4-3.1-3.1-0.6-0.7-0.6-0.7-0.7 0.4-0.2 1.1-0.5 3.2-0.6 5-0.1 3.9 1 7.2 3.3 10.5 2.4 3.4 6.2 6.4 10.3 7.3 3.3 0.7 7.1-0.2 10.5 0.6 1.6 0.4 3.3 1.1 4.9 2.1 0.9 0.6 1.7 1.2 2.3 1.8-0.9-1.7-2.3-3.3-3.7-4.7-1.4-1.4-3-2.6-4.7-3.7-2.2-1.4-4.6-2.3-6.9-3.2-4.8-2.1-8-4.1-11.7-8.3 6.1 4.4 6.8 4.9 12.2 7.1 2.3 0.9 4.7 1.9 7.1 3.3 1.8 1.1 3.4 2.5 4.9 3.9 1.5 1.5 2.8 3.1 3.8 4.6q0.5 0.9 0.9 1.8-0.1-0.2-0.1-0.6z"/>
		</g>
	</g>
</svg>